<svg xmlns="http://www.w3.org/2000/svg" width="800" height="220" viewBox="0 0 800 220">
  <defs>
    <style>
      @import url('https://fonts.googleapis.com/css2?family=JetBrains+Mono:wght@400;600;700&amp;display=swap');
      text { font-family: 'JetBrains Mono', monospace; }
    </style>
  </defs>
  <rect x="0" y="0" width="800" height="220" rx="8" fill="#0d1117" stroke="#30363d" stroke-width="1"/>

  <text x="40" y="40" font-size="14" font-weight="700" fill="#c9d1d9">TECH STACK</text>
  <line x1="40" y1="55" x2="760" y2="55" stroke="#30363d" stroke-width="1"/>

  <text x="40" y="85" font-size="11" fill="#8b949e">LANGUAGES</text>
  <rect x="40" y="95" width="100" height="28" rx="5" fill="#4d6bfe" opacity=".15"/>
  <text x="50" y="114" font-size="11" font-weight="600" fill="#4d6bfe">Python</text>
  <rect x="150" y="95" width="100" height="28" rx="5" fill="#4d6bfe" opacity=".15"/>
  <text x="160" y="114" font-size="11" font-weight="600" fill="#4d6bfe">TypeScript</text>
  <rect x="260" y="95" width="100" height="28" rx="5" fill="#4d6bfe" opacity=".15"/>
  <text x="270" y="114" font-size="11" font-weight="600" fill="#4d6bfe">JavaScript</text>
  <rect x="370" y="95" width="80" height="28" rx="5" fill="#4d6bfe" opacity=".15"/>
  <text x="378" y="114" font-size="11" font-weight="600" fill="#4d6bfe">HTML</text>

  <text x="40" y="155" font-size="11" fill="#8b949e">FRAMEWORKS &amp; TOOLS</text>
  <rect x="40" y="165" width="100" height="28" rx="5" fill="#4d6bfe" opacity=".15"/>
  <text x="50" y="184" font-size="11" font-weight="600" fill="#4d6bfe">React</text>
  <rect x="150" y="165" width="90" height="28" rx="5" fill="#4d6bfe" opacity=".15"/>
  <text x="158" y="184" font-size="11" font-weight="600" fill="#4d6bfe">FastAPI</text>
  <rect x="250" y="165" width="110" height="28" rx="5" fill="#4d6bfe" opacity=".15"/>
  <text x="258" y="184" font-size="11" font-weight="600" fill="#4d6bfe">Whisper AI</text>
  <rect x="370" y="165" width="70" height="28" rx="5" fill="#4d6bfe" opacity=".15"/>
  <text x="378" y="184" font-size="11" font-weight="600" fill="#4d6bfe">Ollama</text>
</svg>