<svg xmlns="http://www.w3.org/2000/svg" width="800" height="340" viewBox="0 0 800 340">
  <defs>
    <style>
      @import url('https://fonts.googleapis.com/css2?family=JetBrains+Mono:wght@400;600;700&amp;display=swap');
      text { font-family: 'JetBrains Mono', monospace; }
    </style>
  </defs>

  <!-- Card 1: Rescue AI -->
  <a href="https://github.com/sourya2007/rescue-ai" target="_blank">
    <rect x="10" y="10" width="250" height="310" rx="8" fill="#f8f9fa" stroke="#dee2e6" stroke-width="1"/>
    <rect x="10" y="10" width="250" height="4" rx="2" fill="#4d6bfe"/>

    <text x="30" y="45" font-size="28">🚁</text>
    <text x="30" y="80" font-size="15" font-weight="700" fill="#212529">Rescue AI</text>

    <text x="30" y="105" font-size="11" fill="#495057">
      <tspan x="30" dy="0">AI-powered disaster</tspan>
      <tspan x="30" dy="17">response &amp; emergency</tspan>
      <tspan x="30" dy="17">coordination system.</tspan>
      <tspan x="30" dy="17">Intelligent routing,</tspan>
      <tspan x="30" dy="17">victim detection, and</tspan>
      <tspan x="30" dy="17">real-time analytics.</tspan>
    </text>

    <!-- Tags -->
    <rect x="30" y="225" width="52" height="20" rx="4" fill="#4d6bfe" opacity="0.12"/>
    <text x="36" y="239" font-size="10" font-weight="600" fill="#4d6bfe">Python</text>

    <rect x="90" y="225" width="38" height="20" rx="4" fill="#4d6bfe" opacity="0.12"/>
    <text x="96" y="239" font-size="10" font-weight="600" fill="#4d6bfe">AI/ML</text>

    <rect x="136" y="225" width="42" height="20" rx="4" fill="#4d6bfe" opacity="0.12"/>
    <text x="142" y="239" font-size="10" font-weight="600" fill="#4d6bfe">CV</text>

    <!-- Link hint -->
    <text x="30" y="280" font-size="10" fill="#adb5bd">github.com/sourya2007 →</text>
  </a>

  <!-- Card 2: Veritas AI -->
  <a href="https://github.com/sourya2007/Veritas-AI" target="_blank">
    <rect x="275" y="10" width="250" height="310" rx="8" fill="#f8f9fa" stroke="#dee2e6" stroke-width="1"/>
    <rect x="275" y="10" width="250" height="4" rx="2" fill="#4d6bfe"/>

    <text x="295" y="45" font-size="28">🔍</text>
    <text x="295" y="80" font-size="15" font-weight="700" fill="#212529">Veritas AI</text>

    <text x="295" y="105" font-size="11" fill="#495057">
      <tspan x="295" dy="0">Truth verification</tspan>
      <tspan x="295" dy="17">engine using NLP and</tspan>
      <tspan x="295" dy="17">deep learning. Fact-</tspan>
      <tspan x="295" dy="17">checking, misinformation</tspan>
      <tspan x="295" dy="17">detection &amp; source</tspan>
      <tspan x="295" dy="17">credibility analysis.</tspan>
    </text>

    <!-- Tags -->
    <rect x="295" y="225" width="52" height="20" rx="4" fill="#4d6bfe" opacity="0.12"/>
    <text x="301" y="239" font-size="10" font-weight="600" fill="#4d6bfe">Python</text>

    <rect x="355" y="225" width="38" height="20" rx="4" fill="#4d6bfe" opacity="0.12"/>
    <text x="361" y="239" font-size="10" font-weight="600" fill="#4d6bfe">NLP</text>

    <rect x="401" y="225" width="38" height="20" rx="4" fill="#4d6bfe" opacity="0.12"/>
    <text x="407" y="239" font-size="10" font-weight="600" fill="#4d6bfe">DL</text>

    <!-- Link hint -->
    <text x="295" y="280" font-size="10" fill="#adb5bd">github.com/sourya2007 →</text>
  </a>

  <!-- Card 3: BioChain Wallet -->
  <a href="https://github.com/sourya2007/BioChain-Wallet" target="_blank">
    <rect x="540" y="10" width="250" height="310" rx="8" fill="#f8f9fa" stroke="#dee2e6" stroke-width="1"/>
    <rect x="540" y="10" width="250" height="4" rx="2" fill="#4d6bfe"/>

    <text x="560" y="45" font-size="28">🔗</text>
    <text x="560" y="80" font-size="15" font-weight="700" fill="#212529">BioChain Wallet</text>

    <text x="560" y="105" font-size="11" fill="#495057">
      <tspan x="560" dy="0">Biometric-secured</tspan>
      <tspan x="560" dy="17">blockchain wallet.</tspan>
      <tspan x="560" dy="17">Fingerprint &amp; facial</tspan>
      <tspan x="560" dy="17">recognition for</tspan>
      <tspan x="560" dy="17">decentralized identity</tspan>
      <tspan x="560" dy="17">and asset management.</tspan>
    </text>

    <!-- Tags -->
    <rect x="560" y="225" width="70" height="20" rx="4" fill="#4d6bfe" opacity="0.12"/>
    <text x="566" y="239" font-size="10" font-weight="600" fill="#4d6bfe">Blockchain</text>

    <rect x="638" y="225" width="70" height="20" rx="4" fill="#4d6bfe" opacity="0.12"/>
    <text x="644" y="239" font-size="10" font-weight="600" fill="#4d6bfe">Biometrics</text>

    <!-- Link hint -->
    <text x="560" y="280" font-size="10" fill="#adb5bd">github.com/sourya2007 →</text>
  </a>
</svg>
